<svg width="19" height="20" viewBox="0 0 19 20" fill="none" xmlns="http://www.w3.org/2000/svg">
<path id="check-mark-icon" d="M18.8112 2.08256C19.0991 1.54386 19.0525 0.743238 18.707 0.29432C18.3615 -0.154598 17.848 -0.0818143 17.5601 0.456888L11.7074 11.4081C10.5318 13.6079 9.70475 15.1506 8.98742 16.1606C8.28682 17.1471 7.80332 17.4606 7.32858 17.4606C6.85384 17.4606 6.37033 17.1471 5.66973 16.1606C4.9524 15.1506 4.12537 13.6079 2.94972 11.4081L1.43985 8.58293C1.15195 8.04423 0.638494 7.97144 0.293013 8.42036C-0.0524694 8.86928 -0.0991475 9.6699 0.188754 10.2086L1.74053 13.1122C2.86453 15.2154 3.76468 16.8997 4.57827 18.0453C5.41867 19.2286 6.27775 20 7.32858 20C8.3794 20 9.23848 19.2286 10.0789 18.0453C10.8925 16.8998 11.7926 15.2154 12.9166 13.1122L18.8112 2.08256Z" fill="black"/>
</svg>
