<svg width="18" height="20" viewBox="0 0 18 20" fill="none" xmlns="http://www.w3.org/2000/svg">
<style>
    #copy-link-icon{
        fill: #FFFFFF;
    }
</style>
<path id="copy-link-icon" fill-rule="evenodd" clip-rule="evenodd" d="M11.7929 0.0273196C11.0017 1.23021e-07 10.081 1.23104e-07 9.01022 1.23104e-07H8.95823C7.26297 -7.47302e-06 5.9341 -1.3515e-05 4.87982 0.115096C3.80394 0.232564 2.93221 0.476581 2.18791 1.02154C1.73731 1.35145 1.34106 1.75078 1.01368 2.20487C0.472915 2.95494 0.230775 3.83343 0.114211 4.91765C-1.3411e-05 5.9801 -7.41554e-06 7.31927 1.22158e-07 9.02767V10.9723C-7.41554e-06 12.6807 -1.3411e-05 14.0199 0.114211 15.0823C0.230775 16.1666 0.472915 17.0451 1.01368 17.7951C1.34106 18.2492 1.73731 18.6486 2.18791 18.9785C2.93221 19.5234 3.80394 19.7674 4.87982 19.8849C5.93408 20 7.26292 20 8.95814 20H9.04179C10.737 20 12.0659 20 13.1202 19.8849C14.1961 19.7674 15.0678 19.5234 15.8121 18.9785C16.2627 18.6486 16.6589 18.2492 16.9863 17.7951C17.5271 17.0451 17.7692 16.1666 17.8858 15.0823C18 14.0199 18 12.6808 18 10.9724V9.05952C18 7.98038 18 7.05259 17.9729 6.25518C17.9136 4.51244 17.7265 3.23153 16.9863 2.20487C16.6589 1.75078 16.2627 1.35145 15.8121 1.02154C14.7933 0.275625 13.5223 0.0870282 11.7929 0.0273196ZM3.00177 2.1504C3.47069 1.80706 4.07089 1.60693 5.02896 1.50233C5.99999 1.39631 7.25393 1.39535 9 1.39535C9.78309 1.39535 10.4693 1.39539 11.0786 1.40541C11.0826 1.84695 11.0963 2.17199 11.1423 2.46465C11.502 4.75338 13.2832 6.54839 15.5543 6.91089C15.8447 6.95724 16.1673 6.97098 16.6054 6.97505C16.6153 7.58904 16.6154 8.28061 16.6154 9.06977V10.9302C16.6154 12.6898 16.6144 13.9535 16.5092 14.9321C16.4054 15.8976 16.2068 16.5024 15.8661 16.975C15.6242 17.3106 15.3313 17.6058 14.9982 17.8496C14.5293 18.1929 13.9291 18.3931 12.971 18.4977C12 18.6037 10.7461 18.6047 9 18.6047C7.25393 18.6047 5.99999 18.6037 5.02896 18.4977C4.07089 18.3931 3.47069 18.1929 3.00177 17.8496C2.66872 17.6058 2.37583 17.3106 2.13386 16.975C1.79316 16.5024 1.59457 15.8976 1.49077 14.9321C1.38557 13.9535 1.38462 12.6898 1.38462 10.9302V9.06977C1.38462 7.31017 1.38557 6.04651 1.49077 5.06795C1.59457 4.10245 1.79316 3.4976 2.13386 3.02504C2.37583 2.68941 2.66872 2.39425 3.00177 2.1504ZM12.5098 2.24637C12.4799 2.05564 12.4684 1.83478 12.4641 1.45809C13.7198 1.54531 14.4449 1.74526 14.9982 2.1504C15.3313 2.39425 15.6242 2.68941 15.8661 3.02504C16.2682 3.58267 16.4666 4.31337 16.5531 5.5788C16.1793 5.57445 15.9602 5.56293 15.7709 5.53272C14.0923 5.26479 12.7757 3.93804 12.5098 2.24637Z" fill="black"/>
</svg>
