<svg width="21" height="19" viewBox="0 0 21 19" fill="none" xmlns="http://www.w3.org/2000/svg">
<style>
    #central-ellipse, #right-ellipse, #left-ellipse, #base{
        opacity: 0.5;
        stroke: #FFFFFF;
    }
    #bottom-base{
        opacity: 0.5;
        stroke: #4094DA;
    }
</style>
<g id="creator-icon">
<path id="bottom-base" fill-rule="evenodd" clip-rule="evenodd" d="M3.67896 17.3333C3.05374 17.3333 2.47602 16.9997 2.16341 16.4583C1.8508 15.9168 1.8508 15.2497 2.16341 14.7083C2.47602 14.1668 3.05374 13.8333 3.67896 13.8333H16.5123C17.4788 13.8333 18.2623 14.6168 18.2623 15.5833C18.2623 16.5498 17.4788 17.3333 16.5123 17.3333H3.67896Z" stroke="black" stroke-width="1.5" stroke-linecap="round" stroke-linejoin="round"/>
<path id="base" fill-rule="evenodd" clip-rule="evenodd" d="M1.92896 4.5C3.40479 7.09933 6.67146 10.9972 10.0956 4.5C13.5198 10.9972 16.7865 7.09933 18.2623 4.5L16.629 13.8333H3.56229L1.92896 4.5Z" stroke="black" stroke-width="1.5" stroke-linecap="round" stroke-linejoin="round"/>
<path id="central-ellipse" fill-rule="evenodd" clip-rule="evenodd" d="M10.0955 4.5C9.12896 4.5 8.34546 3.7165 8.34546 2.75C8.34546 1.7835 9.12896 1 10.0955 1C11.062 1 11.8455 1.7835 11.8455 2.75C11.8455 3.21413 11.6611 3.65925 11.3329 3.98744C11.0047 4.31563 10.5596 4.5 10.0955 4.5Z" stroke="black" stroke-width="1.5" stroke-linecap="round" stroke-linejoin="round"/>
<path id="right-ellipse" fill-rule="evenodd" clip-rule="evenodd" d="M18.2621 4.50008C17.6178 4.50008 17.0955 3.97775 17.0955 3.33341C17.0955 2.68908 17.6178 2.16675 18.2621 2.16675C18.9065 2.16675 19.4288 2.68908 19.4288 3.33341C19.4288 3.64283 19.3059 3.93958 19.0871 4.15837C18.8683 4.37717 18.5715 4.50008 18.2621 4.50008Z" stroke="black" stroke-width="1.5" stroke-linecap="round" stroke-linejoin="round"/>
<path id="left-ellipse" fill-rule="evenodd" clip-rule="evenodd" d="M1.92887 4.50008C1.28454 4.50008 0.762207 3.97775 0.762207 3.33341C0.762207 2.68908 1.28454 2.16675 1.92887 2.16675C2.57321 2.16675 3.09554 2.68908 3.09554 3.33341C3.09554 3.64283 2.97262 3.93958 2.75383 4.15837C2.53504 4.37717 2.23829 4.50008 1.92887 4.50008Z" stroke="black" stroke-width="1.5" stroke-linecap="round" stroke-linejoin="round"/>
</g>
</svg>
