<svg width="21" height="20" viewBox="0 0 21 20" fill="none" xmlns="http://www.w3.org/2000/svg">
<style>
    #dollar-icon{
        fill: #4094DA;
    }
    #ellipse{
        fill: #FFFFFF;
    }
</style>
<g id="earn-icon">
<path id="dollar-icon" fill-rule="evenodd" clip-rule="evenodd" d="M9.76221 5C9.76221 4.44772 10.2099 4 10.7622 4C11.3145 4 11.7622 4.44772 11.7622 5C13.4191 5 14.7622 6.34315 14.7622 8C14.7622 8.55228 14.3145 9 13.7622 9C13.2099 9 12.7622 8.55228 12.7622 8C12.7622 7.44772 12.3145 7 11.7622 7H10.7622H9.50562C9.09505 7 8.76221 7.33284 8.76221 7.74342C8.76221 8.06341 8.96697 8.34749 9.27053 8.44868L12.8863 9.65395C14.0066 10.0274 14.7622 11.0757 14.7622 12.2566C14.7622 13.7717 13.5339 15 12.0188 15H11.7622C11.7622 15.5523 11.3145 16 10.7622 16C10.2099 16 9.76221 15.5523 9.76221 15C8.10535 15 6.76221 13.6569 6.76221 12C6.76221 11.4477 7.20992 11 7.76221 11C8.31449 11 8.76221 11.4477 8.76221 12C8.76221 12.5523 9.20992 13 9.76221 13H10.7622H12.0188C12.4294 13 12.7622 12.6672 12.7622 12.2566C12.7622 11.9366 12.5574 11.6525 12.2539 11.5513L8.63808 10.346C7.51783 9.97263 6.76221 8.92427 6.76221 7.74342C6.76221 6.22827 7.99048 5 9.50562 5L9.76221 5Z" fill="black"/>
<path id="ellipse" fill-rule="evenodd" clip-rule="evenodd" d="M10.7622 18C15.1805 18 18.7622 14.4183 18.7622 10C18.7622 5.58172 15.1805 2 10.7622 2C6.34393 2 2.76221 5.58172 2.76221 10C2.76221 14.4183 6.34393 18 10.7622 18ZM10.7622 20C16.2851 20 20.7622 15.5228 20.7622 10C20.7622 4.47715 16.2851 0 10.7622 0C5.23936 0 0.762207 4.47715 0.762207 10C0.762207 15.5228 5.23936 20 10.7622 20Z" fill="black"/>
</g>
</svg>
