<svg width="22" height="18" viewBox="0 0 22 18" fill="none" xmlns="http://www.w3.org/2000/svg">
<g id="eyes-icon-start">
<path fill-rule="evenodd" clip-rule="evenodd" d="M11.1001 4.92355C9.01174 4.92355 7.3188 6.55451 7.3188 8.56641C7.3188 10.5783 9.01174 12.2093 11.1001 12.2093C13.1885 12.2093 14.8814 10.5783 14.8814 8.56641C14.8814 6.55451 13.1885 4.92355 11.1001 4.92355ZM8.83132 8.56641C8.83132 7.35927 9.84709 6.38069 11.1001 6.38069C12.3531 6.38069 13.3689 7.35927 13.3689 8.56641C13.3689 9.77354 12.3531 10.7521 11.1001 10.7521C9.84709 10.7521 8.83132 9.77354 8.83132 8.56641Z" fill="black"/>
<path fill-rule="evenodd" clip-rule="evenodd" d="M11.1001 0.0664062C8.94127 0.0664062 6.98932 1.09514 5.40468 2.3451C3.8114 3.60189 2.5086 5.14567 1.63315 6.32048L1.56095 6.41721C1.03393 7.1227 0.600098 7.70344 0.600098 8.56641C0.600098 9.42937 1.03393 10.0101 1.56095 10.7156L1.63315 10.8123C2.5086 11.9871 3.8114 13.5309 5.40468 14.7877C6.98932 16.0377 8.94127 17.0664 11.1001 17.0664C13.2589 17.0664 15.2109 16.0377 16.7955 14.7877C18.3888 13.5309 19.6916 11.9871 20.567 10.8123L20.6392 10.7156C21.1663 10.0101 21.6001 9.42937 21.6001 8.56641C21.6001 7.70344 21.1663 7.1227 20.6392 6.41721L20.567 6.32048C19.6916 5.14567 18.3888 3.60189 16.7955 2.3451C15.2109 1.09514 13.2589 0.0664062 11.1001 0.0664062ZM2.86183 7.17025C3.69802 6.04813 4.91236 4.61671 6.36289 3.47254C7.82206 2.32154 9.44059 1.52355 11.1001 1.52355C12.7596 1.52355 14.3781 2.32154 15.8373 3.47254C17.2878 4.61671 18.5022 6.04813 19.3384 7.17025C19.9675 8.01457 20.0876 8.21813 20.0876 8.56641C20.0876 8.91469 19.9675 9.11824 19.3384 9.96256C18.5022 11.0847 17.2878 12.5161 15.8373 13.6603C14.3781 14.8113 12.7596 15.6093 11.1001 15.6093C9.44059 15.6093 7.82206 14.8113 6.36289 13.6603C4.91236 12.5161 3.69802 11.0847 2.86184 9.96256C2.23266 9.11824 2.11262 8.91469 2.11262 8.56641C2.11262 8.21813 2.23266 8.01457 2.86183 7.17025Z" fill="black"/>
</g>
</svg>
