<svg width="25" height="24" viewBox="0 0 25 24" fill="none" xmlns="http://www.w3.org/2000/svg">
<style>
    #face{
        stroke: rgba(250, 250, 250, 0.71);
    }
    #fill-eyes{
        fill: rgba(250, 250, 250, 0.71);
    }
</style>
<g id="happy-icon">
<path id="face" d="M6.89574 14.1941C7.67147 15.6077 9.85467 17.4926 12.4947 17.4926C15.1347 17.4926 17.2048 15.6077 17.8957 14.1941M23.3298 11.9951C23.5119 18.0675 18.7347 22.9901 12.6596 22.9901C6.58443 22.9901 1.51191 18.0675 1.32978 11.9951C1.14765 5.92265 5.92487 1 12 1C18.0751 1 23.1476 5.92265 23.3298 11.9951Z" stroke="black" stroke-width="1.5" stroke-linecap="round"/>
<g id="eyes">
<path id="fill-eyes" d="M9.99787 7.59706C10.0161 8.2043 9.53836 8.69657 8.93085 8.69657C8.32334 8.69657 7.81608 8.2043 7.79787 7.59706C7.77966 6.98982 8.25738 6.49756 8.86489 6.49756C9.47241 6.49756 9.97966 6.98982 9.99787 7.59706Z" fill="black"/>
<path id="fill-eyes" d="M16.5979 7.59706C16.6161 8.2043 16.1384 8.69657 15.5308 8.69657C14.9233 8.69657 14.4161 8.2043 14.3979 7.59706C14.3797 6.98982 14.8574 6.49756 15.4649 6.49756C16.0724 6.49756 16.5797 6.98982 16.5979 7.59706Z" fill="black"/>
</g>
</g>
</svg>
