<svg width="33" height="34" viewBox="0 0 33 34" fill="none" xmlns="http://www.w3.org/2000/svg">
<style>
    #face-sad{
        stroke: #DF36A7;
    }
    #eye-sad{
       fill: #DF36A7; 
    }
    #face-happy{
        stroke: #FAFAFA;
    }
    #eye-happy{
        fill: #FAFAFA;
    }
</style>
<g id="happy-and-sad-icon">
<g id="sad">
<path id="face-sad" d="M15.9687 11.6127C16.974 11.0841 18.9988 10.8247 20.5718 11.8477C22.1448 12.8707 22.6542 14.7784 22.5229 15.8753M28.0099 14.8461C25.5688 18.3371 20.6556 19.2586 17.0359 16.9044C13.4161 14.5502 12.4606 9.81183 14.9016 6.3209C17.3427 2.82996 22.2559 1.90844 25.8756 4.26262C29.4954 6.6168 30.4509 11.3552 28.0099 14.8461Z" stroke="black" stroke-width="1.5" stroke-linecap="round"/>
<g id="eyes-sad">
<path id="eye-sad" d="M21.9129 7.20263C21.6688 7.55172 21.1775 7.64388 20.8155 7.40846C20.4535 7.17304 20.358 6.6992 20.6021 6.35011C20.8462 6.00101 21.3375 5.90886 21.6995 6.14428C22.0615 6.3797 22.157 6.85354 21.9129 7.20263Z" fill="black"/>
<path id="eye-sad" d="M25.8454 9.7602C25.6013 10.1093 25.1099 10.2014 24.748 9.96603C24.386 9.73061 24.2904 9.25677 24.5345 8.90768C24.7787 8.55858 25.27 8.46643 25.6319 8.70185C25.9939 8.93727 26.0895 9.41111 25.8454 9.7602Z" fill="black"/>
</g>
</g>
<g id="happy">
<path id="face-happy" d="M8.69749 26.175C9.63916 26.803 11.6242 27.2673 13.3005 26.4104C14.9768 25.5534 15.6924 23.7083 15.682 22.6042M18.4337 19.4716C20.4786 23.1918 19.0092 27.8063 15.1518 29.7783C11.2943 31.7504 6.50958 30.3333 4.46473 26.6132C2.41989 22.893 3.88927 18.2785 7.7467 16.3064C11.6041 14.3343 16.3889 15.7514 18.4337 19.4716Z" stroke="black" stroke-width="1.5" stroke-linecap="round"/>
<g id="eyes-happy">
<path id="eye-happy" d="M8.57135 21.0622C8.77584 21.4342 8.6289 21.8957 8.24315 22.0929C7.85741 22.2901 7.37894 22.1484 7.17445 21.7764C6.96997 21.4044 7.11691 20.9429 7.50265 20.7457C7.88839 20.5485 8.36687 20.6902 8.57135 21.0622Z" fill="black"/>
<path id="eye-happy" d="M12.762 18.9198C12.9665 19.2918 12.8196 19.7532 12.4339 19.9504C12.0481 20.1476 11.5696 20.0059 11.3651 19.6339C11.1607 19.2619 11.3076 18.8004 11.6933 18.6032C12.0791 18.406 12.5576 18.5477 12.762 18.9198Z" fill="black"/>
</g>
</g>
</g>
</svg>
