<svg width="23" height="21" viewBox="0 0 23 21" fill="none" xmlns="http://www.w3.org/2000/svg">
<g id="heart-icon-start">
<path d="M7.29094 4.63159C7.68715 4.48068 7.88628 4.03641 7.73572 3.63928C7.58516 3.24215 7.14191 3.04256 6.7457 3.19347C6.16167 3.41592 5.59702 3.77759 5.06879 4.30252C4.39923 4.96791 3.95315 5.72349 3.70385 6.53379C3.57895 6.93976 3.80604 7.37035 4.21108 7.49554C4.61611 7.62073 5.0457 7.39311 5.1706 6.98714C5.34451 6.42185 5.65651 5.88492 6.14947 5.39504C6.53655 5.01037 6.92184 4.77218 7.29094 4.63159Z" fill="black"/>
<path fill-rule="evenodd" clip-rule="evenodd" d="M20.6529 1.7952C19.2945 0.406645 17.7822 -0.0229183 16.362 0.0812908C14.9802 0.182682 13.7358 0.783473 12.8269 1.36135C12.1102 1.81707 11.09 1.81707 10.3732 1.36135C9.46436 0.78348 8.21996 0.182696 6.83818 0.0813066C5.41799 -0.0229005 3.90572 0.40666 2.54727 1.7952C0.943527 3.43447 0.440368 5.45809 0.642417 7.50504C0.842136 9.52839 1.7276 11.5852 2.90856 13.4078C4.09268 15.2352 5.60527 16.8759 7.12274 18.0672C8.60684 19.2324 10.2216 20.0664 11.6001 20.0664C12.9786 20.0664 14.5934 19.2324 16.0775 18.0672C17.5949 16.8759 19.1075 15.2352 20.2916 13.4078C21.4726 11.5852 22.3581 9.52839 22.5578 7.50504C22.7598 5.45809 22.2567 3.43447 20.6529 1.7952ZM13.6491 2.66048C14.4528 2.14946 15.4477 1.69096 16.4741 1.61565C17.4621 1.54315 18.5269 1.81947 19.557 2.87235C20.7882 4.13085 21.1959 5.67654 21.0303 7.35357C20.8625 9.05418 20.102 10.876 19.0044 12.5698C17.91 14.2588 16.5115 15.7723 15.131 16.8561C13.7172 17.966 12.4473 18.5279 11.6001 18.5279C10.753 18.5279 9.48302 17.966 8.0692 16.8561C6.68876 15.7723 5.29023 14.2588 4.1958 12.5698C3.09822 10.876 2.33772 9.05419 2.16986 7.35357C2.00433 5.67654 2.41196 4.13085 3.64319 2.87235C4.67324 1.81948 5.73812 1.54317 6.72612 1.61567C7.75252 1.69098 8.74733 2.14947 9.55105 2.66049C10.7697 3.43531 12.4305 3.43531 13.6491 2.66048Z" fill="black"/>
</g>
</svg>
