<svg width="26" height="23" viewBox="0 0 26 23" fill="none" xmlns="http://www.w3.org/2000/svg">
<style>
    #like-button{
        stroke: #FFFFFF;
    }
</style>
<path id="like-button" d="M11.8582 21.6488C12.5415 22.1171 13.4585 22.1171 14.1418 21.6488C17.557 19.3085 20.8274 16.6161 23.0898 13.1706C24.2232 11.4444 24.6983 10.0485 24.8851 8.90701C24.9605 8.50509 25 8.09044 25 7.66654C25 3.98471 22.0233 1 18.3514 1C16.157 1 14.2109 2.06595 13 3.70962C11.7891 2.06595 9.84304 1 7.64865 1C3.9767 1 1 3.98471 1 7.66654C1 8.09044 1.03946 8.50509 1.11489 8.90701C1.30175 10.0485 1.77683 11.4444 2.91023 13.1706C5.17258 16.6161 8.44302 19.3085 11.8582 21.6488Z" stroke="black" stroke-width="2"/>
</svg>
