<svg width="17" height="17" viewBox="0 0 17 17" fill="none" xmlns="http://www.w3.org/2000/svg">
<style>
    #music-icon{
        fill: white;
    }
</style>
<path id="music-icon" fill-rule="evenodd" clip-rule="evenodd" d="M6.92593 13.8397V3.55538L15.1111 2.13874V11.7693H12.6975C11.3146 11.7693 10.0741 12.5745 10.0741 13.8397C10.0741 15.1051 11.3146 15.9103 12.6975 15.9103H14.3766C15.7594 15.9103 17 15.1051 17 13.8397V12.7501V0.981003C17 0.37495 16.4759 -0.0860461 15.9003 0.0135868L5.82621 1.75715C5.37082 1.83597 5.03704 2.24513 5.03704 2.72456V12.859H2.62345C1.24057 12.859 0 13.6643 0 14.9296C0 16.1949 1.24057 17 2.62345 17H4.30247C5.68535 17 6.92593 16.1949 6.92593 14.9296V14.4936V13.8397Z" fill="black"/>
</svg>
