<svg width="18" height="23" viewBox="0 0 18 23" fill="none" xmlns="http://www.w3.org/2000/svg">
<path id="one-person-icon" d="M12.4417 5.43333C12.4417 7.46758 10.7926 9.11666 8.75833 9.11666V10.6167C11.621 10.6167 13.9417 8.29601 13.9417 5.43333H12.4417ZM8.75833 9.11666C6.72408 9.11666 5.075 7.46758 5.075 5.43333H3.575C3.575 8.29601 5.89566 10.6167 8.75833 10.6167V9.11666ZM5.075 5.43333C5.075 3.39908 6.72408 1.75 8.75833 1.75V0.25C5.89566 0.25 3.575 2.57066 3.575 5.43333H5.075ZM8.75833 1.75C10.7926 1.75 12.4417 3.39908 12.4417 5.43333H13.9417C13.9417 2.57066 11.621 0.25 8.75833 0.25V1.75ZM5.43333 13.9417H12.0833V12.4417H5.43333V13.9417ZM12.0833 21.3083H5.43333V22.8083H12.0833V21.3083ZM5.43333 21.3083C3.39908 21.3083 1.75 19.6592 1.75 17.625H0.25C0.25 20.4877 2.57066 22.8083 5.43333 22.8083V21.3083ZM15.7667 17.625C15.7667 19.6592 14.1176 21.3083 12.0833 21.3083V22.8083C14.946 22.8083 17.2667 20.4877 17.2667 17.625H15.7667ZM12.0833 13.9417C14.1176 13.9417 15.7667 15.5907 15.7667 17.625H17.2667C17.2667 14.7623 14.946 12.4417 12.0833 12.4417V13.9417ZM5.43333 12.4417C2.57066 12.4417 0.25 14.7623 0.25 17.625H1.75C1.75 15.5907 3.39908 13.9417 5.43333 13.9417V12.4417Z" fill="black"/>
</svg>
