<svg width="20" height="19" viewBox="0 0 20 19" fill="none" xmlns="http://www.w3.org/2000/svg">
<style>
    #slash{
        opacity: 0.5;
        fill: #FFFFFF;
    }
    #ellipses{
        opacity: 0.5;
        fill: #4094DA;
    }
</style>
<g id="percent-icon">
<path id="slash" fill-rule="evenodd" clip-rule="evenodd" d="M17.3336 0.211172C17.807 0.56095 17.9029 1.22257 17.5479 1.68894L4.69083 18.5777C4.33579 19.0441 3.66422 19.1386 3.19084 18.7888C2.71746 18.4391 2.62152 17.7774 2.97655 17.3111L15.8336 0.422282C16.1886 -0.0440891 16.8602 -0.138606 17.3336 0.211172Z" fill="black"/>
<path id="ellipses" fill-rule="evenodd" clip-rule="evenodd" d="M6.03998 3.69444C6.03998 4.5689 5.3311 5.27778 4.45665 5.27778C3.5822 5.27778 2.87332 4.5689 2.87332 3.69444C2.87332 2.81999 3.5822 2.11111 4.45665 2.11111C5.3311 2.11111 6.03998 2.81999 6.03998 3.69444ZM8.1511 3.69444C8.1511 5.73483 6.49704 7.38889 4.45665 7.38889C2.41627 7.38889 0.762207 5.73483 0.762207 3.69444C0.762207 1.65406 2.41627 0 4.45665 0C6.49704 0 8.1511 1.65406 8.1511 3.69444ZM17.6511 15.3056C17.6511 16.18 16.9422 16.8889 16.0678 16.8889C15.1933 16.8889 14.4844 16.18 14.4844 15.3056C14.4844 14.4311 15.1933 13.7222 16.0678 13.7222C16.9422 13.7222 17.6511 14.4311 17.6511 15.3056ZM19.7622 15.3056C19.7622 17.3459 18.1081 19 16.0678 19C14.0274 19 12.3733 17.3459 12.3733 15.3056C12.3733 13.2652 14.0274 11.6111 16.0678 11.6111C18.1081 11.6111 19.7622 13.2652 19.7622 15.3056Z" fill="black"/>
</g>
</svg>
