<svg width="21" height="23" viewBox="0 0 21 23" fill="none" xmlns="http://www.w3.org/2000/svg">
<style>
    #person{
        fill: #FFFFFF;
    }
    #video{
        stroke: #DF36A7;
    }
</style>
<g id="profile-icon">
<path id="person" d="M11.1767 5.05983C11.1767 6.8878 9.69488 8.36966 7.86691 8.36966V9.86966C10.5233 9.86966 12.6767 7.71622 12.6767 5.05983H11.1767ZM7.86691 8.36966C6.03894 8.36966 4.55708 6.8878 4.55708 5.05983H3.05708C3.05708 7.71622 5.21051 9.86966 7.86691 9.86966V8.36966ZM4.55708 5.05983C4.55708 3.23186 6.03894 1.75 7.86691 1.75V0.25C5.21051 0.25 3.05708 2.40343 3.05708 5.05983H4.55708ZM7.86691 1.75C9.69488 1.75 11.1767 3.23186 11.1767 5.05983H12.6767C12.6767 2.40343 10.5233 0.25 7.86691 0.25V1.75ZM4.82204 12.9145H10.9118V11.4145H4.82204V12.9145ZM10.9118 19.5342H4.82204V21.0342H10.9118V19.5342ZM4.82204 19.5342C2.99407 19.5342 1.51221 18.0523 1.51221 16.2244H0.012207C0.012207 18.8808 2.16564 21.0342 4.82204 21.0342V19.5342ZM14.2216 16.2244C14.2216 18.0523 12.7397 19.5342 10.9118 19.5342V21.0342C13.5682 21.0342 15.7216 18.8808 15.7216 16.2244H14.2216ZM10.9118 12.9145C12.7397 12.9145 14.2216 14.3964 14.2216 16.2244H15.7216C15.7216 13.568 13.5682 11.4145 10.9118 11.4145V12.9145ZM4.82204 11.4145C2.16564 11.4145 0.012207 13.568 0.012207 16.2244H1.51221C1.51221 14.3964 2.99407 12.9145 4.82204 12.9145V11.4145Z" fill="black"/>
<path id="video" d="M13.0752 17.9605H11.0453M17.0305 17.4468C17.135 17.8335 17.135 18.3513 17.135 19.1624C17.135 19.9733 17.135 20.4912 17.0306 20.8778M17.0305 17.4468C16.9905 17.2987 16.9351 17.1698 16.8585 17.051C16.6152 16.6741 16.227 16.3677 15.7496 16.1756C15.2068 15.9573 14.4963 15.9573 13.0752 15.9573C11.6541 15.9573 10.9436 15.9573 10.4008 16.1756C9.92338 16.3677 9.53521 16.6741 9.29194 17.051C9.01538 17.4796 9.01538 18.0405 9.01538 19.1624C9.01538 20.2843 9.01538 20.8453 9.29194 21.2738C9.53521 21.6507 9.92338 21.9571 10.4008 22.1492C10.9436 22.3675 11.6541 22.3675 13.0752 22.3675C14.4963 22.3675 15.2068 22.3675 15.7496 22.1492C16.227 21.9571 16.6152 21.6507 16.8585 21.2738C16.9351 21.155 16.9906 21.026 17.0306 20.8778M17.0305 17.4468L17.135 17.4083L17.3372 17.3386C18.62 16.896 19.2615 16.6748 19.7207 16.912C20.1799 17.1492 20.1799 17.7018 20.1799 18.807V19.5178C20.1799 20.623 20.1799 21.1756 19.7207 21.4128C19.2615 21.6501 18.62 21.4288 17.3372 20.9862L17.135 20.9165L17.0306 20.8778" stroke="black" stroke-linecap="round"/>
</g>
</svg>
