<svg width="20" height="18" viewBox="0 0 20 18" fill="none" xmlns="http://www.w3.org/2000/svg">
<style>
    #main-person{
        fill: #FFFFFF;
    }
    #fill-secondary-person{
        fill: #4094DA;
    }
    #stroke-secondary-person{
        stroke: #4094DA;
    }
</style>
<g id="refferals-icon">
<path id="main-person" d="M4.7503 4.04767C4.7503 5.42181 5.86426 6.53577 7.2384 6.53577V8.03577C5.03583 8.03577 3.2503 6.25024 3.2503 4.04767H4.7503ZM7.2384 6.53577C8.61254 6.53577 9.7265 5.42181 9.7265 4.04767H11.2265C11.2265 6.25024 9.44096 8.03577 7.2384 8.03577V6.53577ZM9.7265 4.04767C9.7265 2.67353 8.61254 1.55957 7.2384 1.55957V0.0595703C9.44096 0.0595703 11.2265 1.8451 11.2265 4.04767H9.7265ZM7.2384 1.55957C5.86426 1.55957 4.7503 2.67353 4.7503 4.04767H3.2503C3.2503 1.8451 5.03583 0.0595703 7.2384 0.0595703V1.55957ZM10.4765 11.2739H4.0003V9.77387H10.4765V11.2739ZM4.0003 16.2501H10.4765V17.7501H4.0003V16.2501ZM10.4765 16.2501C11.8506 16.2501 12.9646 15.1361 12.9646 13.762H14.4646C14.4646 15.9645 12.6791 17.7501 10.4765 17.7501V16.2501ZM1.51219 13.762C1.51219 15.1361 2.62615 16.2501 4.0003 16.2501V17.7501C1.79773 17.7501 0.0121937 15.9645 0.0121937 13.762H1.51219ZM4.0003 11.2739C2.62615 11.2739 1.51219 12.3878 1.51219 13.762H0.0121937C0.0121937 11.5594 1.79773 9.77387 4.0003 9.77387V11.2739ZM10.4765 9.77387C12.6791 9.77387 14.4646 11.5594 14.4646 13.762H12.9646C12.9646 12.3878 11.8506 11.2739 10.4765 11.2739V9.77387Z" fill="black"/>
<g id="secondary-person">
<path id="fill-secondary-person" d="M11.8236 6.8957C11.9938 6.62221 12.3133 6.4762 12.6354 6.4762C13.9767 6.4762 15.064 5.38889 15.064 4.04763C15.064 2.70636 13.9767 1.61905 12.6354 1.61905C12.3133 1.61905 11.9938 1.47304 11.8236 1.19955C11.816 1.18746 11.8085 1.17539 11.8009 1.16336C11.5174 0.715953 11.661 0.0824643 12.1875 0.0245051C12.3346 0.0083122 12.484 0 12.6354 0C14.8709 0 16.683 1.81218 16.683 4.04763C16.683 6.28307 14.8709 8.09525 12.6354 8.09525C12.484 8.09525 12.3346 8.08694 12.1875 8.07075C11.661 8.01279 11.5174 7.3793 11.8008 6.93189C11.8085 6.91986 11.816 6.9078 11.8236 6.8957Z" fill="black"/>
<path id="fill-secondary-person" d="M15.109 15.4532C15.2315 15.2487 15.4478 15.1111 15.6862 15.1111H15.8735C17.2148 15.1111 18.3021 14.0238 18.3021 12.6826C18.3021 11.3413 17.2148 10.254 15.8735 10.254H15.6862C15.4478 10.254 15.2315 10.1164 15.109 9.91197C14.8099 9.41297 15.1345 8.63494 15.7163 8.63494H15.8735C18.109 8.63494 19.9211 10.4471 19.9211 12.6826C19.9211 14.918 18.109 16.7302 15.8735 16.7302H15.7163C15.1345 16.7302 14.8099 15.9522 15.109 15.4532Z" fill="black"/>
<path id="stroke-secondary-person" d="M11.8236 6.8957C11.9938 6.62221 12.3133 6.4762 12.6354 6.4762C13.9767 6.4762 15.064 5.38889 15.064 4.04763C15.064 2.70636 13.9767 1.61905 12.6354 1.61905C12.3133 1.61905 11.9938 1.47304 11.8236 1.19955C11.816 1.18746 11.8085 1.17539 11.8009 1.16336C11.5174 0.715953 11.661 0.0824643 12.1875 0.0245051C12.3346 0.0083122 12.484 0 12.6354 0C14.8709 0 16.683 1.81218 16.683 4.04763C16.683 6.28307 14.8709 8.09525 12.6354 8.09525C12.484 8.09525 12.3346 8.08694 12.1875 8.07075C11.661 8.01279 11.5174 7.3793 11.8008 6.93189C11.8085 6.91986 11.816 6.9078 11.8236 6.8957Z" stroke="black"/>
<path id="stroke-secondary-person" d="M15.109 15.4532C15.2315 15.2487 15.4478 15.1111 15.6862 15.1111H15.8735C17.2148 15.1111 18.3021 14.0238 18.3021 12.6826C18.3021 11.3413 17.2148 10.254 15.8735 10.254H15.6862C15.4478 10.254 15.2315 10.1164 15.109 9.91197C14.8099 9.41297 15.1345 8.63494 15.7163 8.63494H15.8735C18.109 8.63494 19.9211 10.4471 19.9211 12.6826C19.9211 14.918 18.109 16.7302 15.8735 16.7302H15.7163C15.1345 16.7302 14.8099 15.9522 15.109 15.4532Z" stroke="black"/>
</g>
</g>
</svg>
