<svg width="25" height="24" viewBox="0 0 25 24" fill="none" xmlns="http://www.w3.org/2000/svg">
<style>
    #face{
        stroke: rgba(250, 250, 250, 0.71);
    }
    #fill-eyes{
        fill: rgba(250, 250, 250, 0.71);
    }
    #stroke-eyes{
        stroke: rgba(250, 250, 250, 0.71);
    }
</style>
<g id="sad-icon">
<path id="face" d="M6.68471 17.4907C7.46553 16.0772 9.65552 14.1926 12.2955 14.1926C14.9355 14.1926 16.9989 16.0772 17.6847 17.4907M23.3694 11.9938C23.1654 18.0655 18.0752 22.9876 12 22.9876C5.92489 22.9876 1.16539 18.0655 1.36939 11.9938C1.57339 5.92209 6.66364 1 12.7388 1C18.8139 1 23.5734 5.92209 23.3694 11.9938Z" stroke="black" stroke-width="1.5" stroke-linecap="round"/>
<g id="eyes">
<mask id="path-2-inside-1_599_206" fill="white">
<path d="M10.3171 7.59621C10.2967 8.20338 9.78769 8.69559 9.18018 8.69559C8.57266 8.69559 8.09672 8.20338 8.11712 7.59621C8.13752 6.98904 8.64654 6.49683 9.25405 6.49683C9.86157 6.49683 10.3375 6.98904 10.3171 7.59621Z"/>
<path d="M16.9171 7.59621C16.8967 8.20338 16.3877 8.69559 15.7802 8.69559C15.1727 8.69559 14.6967 8.20338 14.7171 7.59621C14.7375 6.98904 15.2465 6.49683 15.8541 6.49683C16.4616 6.49683 16.9375 6.98904 16.9171 7.59621Z"/>
</mask>
<path id="fill-eyes" d="M10.3171 7.59621C10.2967 8.20338 9.78769 8.69559 9.18018 8.69559C8.57266 8.69559 8.09672 8.20338 8.11712 7.59621C8.13752 6.98904 8.64654 6.49683 9.25405 6.49683C9.86157 6.49683 10.3375 6.98904 10.3171 7.59621Z" fill="black"/>
<path id="fill-eyes" d="M16.9171 7.59621C16.8967 8.20338 16.3877 8.69559 15.7802 8.69559C15.1727 8.69559 14.6967 8.20338 14.7171 7.59621C14.7375 6.98904 15.2465 6.49683 15.8541 6.49683C16.4616 6.49683 16.9375 6.98904 16.9171 7.59621Z" fill="black"/>
<path id="stroke-eyes" d="M10.3171 7.59621C10.2967 8.20338 9.78769 8.69559 9.18018 8.69559C8.57266 8.69559 8.09672 8.20338 8.11712 7.59621C8.13752 6.98904 8.64654 6.49683 9.25405 6.49683C9.86157 6.49683 10.3375 6.98904 10.3171 7.59621Z" stroke="black" stroke-width="3" mask="url(#path-2-inside-1_599_206)"/>
<path id="stroke-eyes" d="M16.9171 7.59621C16.8967 8.20338 16.3877 8.69559 15.7802 8.69559C15.1727 8.69559 14.6967 8.20338 14.7171 7.59621C14.7375 6.98904 15.2465 6.49683 15.8541 6.49683C16.4616 6.49683 16.9375 6.98904 16.9171 7.59621Z" stroke="black" stroke-width="3" mask="url(#path-2-inside-1_599_206)"/>
</g>
</g>
</svg>
