<svg width="21" height="21" viewBox="0 0 21 21" fill="none" xmlns="http://www.w3.org/2000/svg">
<style>
    #search-button{
        fill: #FFFFFF;
    }
</style>
<path id="search-button" fill-rule="evenodd" clip-rule="evenodd" d="M8.88461 1.61538C4.86993 1.61538 1.61538 4.86993 1.61538 8.88461C1.61538 12.8993 4.86993 16.1538 8.88461 16.1538C10.8922 16.1538 12.7084 15.3411 14.0247 14.0247C15.3411 12.7084 16.1538 10.8922 16.1538 8.88461C16.1538 4.86993 12.8993 1.61538 8.88461 1.61538ZM0 8.88461C0 3.97778 3.97778 0 8.88461 0C13.7915 0 17.7692 3.97778 17.7692 8.88461C17.7692 11.0469 16.996 13.0298 15.7122 14.57L20.7634 19.6212C21.0789 19.9366 21.0789 20.448 20.7634 20.7634C20.448 21.0789 19.9366 21.0789 19.6212 20.7634L14.57 15.7122C13.0298 16.996 11.0469 17.7692 8.88461 17.7692C3.97778 17.7692 0 13.7915 0 8.88461Z" fill="black"/>
</svg>
