<svg width="20" height="21" viewBox="0 0 20 21" fill="none" xmlns="http://www.w3.org/2000/svg">
<style>
    #share-icon{
        fill: #4094DA;
    }
</style>
<path id="share-icon" d="M2.80359 19.1436L3.25152 18.542H3.25152L2.80359 19.1436ZM1.83562 18.1515L1.22376 18.5852L1.83562 18.1515ZM15.9157 18.1515L15.3038 17.7177L15.9157 18.1515ZM14.9477 19.1436L14.4998 18.542H14.4998L14.9477 19.1436ZM2.80359 4.71273L2.35565 4.11119V4.11119L2.80359 4.71273ZM1.83562 5.70481L1.22376 5.27108L1.22376 5.27108L1.83562 5.70481ZM10.6166 4.6127C11.0308 4.61779 11.3707 4.28615 11.3757 3.87197C11.3808 3.45779 11.0492 3.1179 10.635 3.11281L10.6166 4.6127ZM17.4949 10.1256C17.4901 9.71145 17.1504 9.37961 16.7362 9.38445C16.322 9.3893 15.9902 9.72899 15.995 10.1432L17.4949 10.1256ZM7.93259 11.2692C7.64332 11.5656 7.64916 12.0405 7.94564 12.3298C8.24211 12.619 8.71695 12.6132 9.00622 12.3167L7.93259 11.2692ZM12.7974 0.261809C12.3832 0.263703 12.0489 0.601021 12.0508 1.01523C12.0527 1.42944 12.39 1.76369 12.8042 1.76179L12.7974 0.261809ZM14.9728 1.00187L14.9763 1.75186L14.9728 1.00187ZM18.9982 5.12748L18.2482 5.12422L18.9982 5.12748ZM18.2385 7.35038C18.2367 7.76459 18.571 8.10184 18.9852 8.10364C19.3994 8.10544 19.7367 7.77112 19.7385 7.35691L18.2385 7.35038ZM18.1635 1.45989L18.6296 0.872286V0.872286L18.1635 1.45989ZM18.5513 1.85731L19.1498 1.40537L19.1498 1.40536L18.5513 1.85731ZM18.3503 1.66588L17.8832 1.07907L17.8464 1.1084L17.8135 1.14211L18.3503 1.66588ZM8.87565 19.25C7.21789 19.25 6.03631 19.2489 5.12321 19.1475C4.22527 19.0478 3.67672 18.8586 3.25152 18.542L2.35565 19.7451C3.08059 20.2849 3.92743 20.524 4.95766 20.6384C5.97274 20.7511 7.25212 20.75 8.87565 20.75V19.25ZM0.25 11.9281C0.25 13.5934 0.249019 14.9011 0.358608 15.9377C0.469569 16.9874 0.700787 17.8475 1.22376 18.5852L2.44748 17.7177C2.13483 17.2767 1.94824 16.7066 1.8503 15.7801C1.75098 14.8405 1.75 13.626 1.75 11.9281H0.25ZM3.25152 18.542C2.94367 18.3128 2.6722 18.0348 2.44748 17.7177L1.22376 18.5852C1.53878 19.0296 1.92061 19.4212 2.35565 19.7451L3.25152 18.542ZM16.0013 11.9281C16.0013 13.626 16.0003 14.8405 15.901 15.7801C15.8031 16.7066 15.6165 17.2767 15.3038 17.7177L16.5275 18.5852C17.0505 17.8475 17.2817 16.9874 17.3927 15.9377C17.5023 14.9011 17.5013 13.5934 17.5013 11.9281H16.0013ZM8.87565 20.75C10.4992 20.75 11.7786 20.7511 12.7936 20.6384C13.8239 20.524 14.6707 20.2849 15.3956 19.7451L14.4998 18.542C14.0746 18.8586 13.526 19.0478 12.6281 19.1475C11.715 19.2489 10.5334 19.25 8.87565 19.25V20.75ZM15.3038 17.7177C15.0791 18.0348 14.8076 18.3128 14.4998 18.542L15.3956 19.7451C15.8307 19.4212 16.2125 19.0296 16.5275 18.5852L15.3038 17.7177ZM8.87565 3.10629C7.25212 3.10629 5.97274 3.10521 4.95766 3.21793C3.92743 3.33233 3.08059 3.57137 2.35565 4.11119L3.25152 5.31427C3.67672 4.99765 4.22527 4.80848 5.12321 4.70877C6.03631 4.60737 7.21789 4.60629 8.87565 4.60629V3.10629ZM1.75 11.9281C1.75 10.2303 1.75098 9.01575 1.8503 8.07623C1.94824 7.14969 2.13483 6.57959 2.44748 6.13855L1.22376 5.27108C0.700787 6.00882 0.469569 6.86887 0.358608 7.91855C0.249019 8.95524 0.25 10.2629 0.25 11.9281H1.75ZM2.35565 4.11119C1.92062 4.43514 1.53878 4.82669 1.22376 5.27108L2.44748 6.13855C2.6722 5.82154 2.94367 5.54351 3.25152 5.31427L2.35565 4.11119ZM8.87565 4.60629C9.52048 4.60629 10.0961 4.60631 10.6166 4.6127L10.635 3.11281C10.1034 3.10628 9.51804 3.10629 8.87565 3.10629V4.60629ZM17.5013 11.9281C17.5013 11.2697 17.5013 10.67 17.4949 10.1256L15.995 10.1432C16.0013 10.6771 16.0013 11.2673 16.0013 11.9281H17.5013ZM12.8042 1.76179L14.9763 1.75186L14.9694 0.251877L12.7974 0.261809L12.8042 1.76179ZM18.2482 5.12422L18.2385 7.35038L19.7385 7.35691L19.7482 5.13075L18.2482 5.12422ZM14.9763 1.75186C15.8604 1.74782 16.4586 1.74628 16.9122 1.79704C17.3494 1.84598 17.556 1.93528 17.6975 2.04749L18.6296 0.872286C18.1786 0.514594 17.656 0.370928 17.079 0.30635C16.5184 0.243601 15.8174 0.247999 14.9694 0.251877L14.9763 1.75186ZM19.7482 5.13075C19.752 4.2603 19.7562 3.54562 19.6953 2.97488C19.633 2.39026 19.4951 1.86265 19.1498 1.40537L17.9528 2.30926C18.0659 2.45915 18.1553 2.67897 18.2038 3.13381C18.2537 3.60254 18.2521 4.21934 18.2482 5.12422L19.7482 5.13075ZM9.00622 12.3167L18.8871 2.18964L17.8135 1.14211L7.93259 11.2692L9.00622 12.3167ZM17.6975 2.04749C17.7456 2.08569 17.7914 2.12708 17.8345 2.1714L18.9098 1.12558C18.822 1.03528 18.7284 0.95066 18.6296 0.872286L17.6975 2.04749ZM17.8345 2.1714C17.8765 2.21462 17.9161 2.26065 17.9528 2.30926L19.1498 1.40536C19.0756 1.30707 18.9954 1.21363 18.9098 1.12558L17.8345 2.1714ZM18.8174 2.25269L18.8392 2.2353L17.9051 1.06168L17.8832 1.07907L18.8174 2.25269Z" fill="black"/>
</svg>
