<svg width="26" height="21" viewBox="0 0 26 21" fill="none" xmlns="http://www.w3.org/2000/svg">
<style>
    #share-button{
        stroke: #FFFFFF;
    }
</style>
<path id="share-button" d="M24.7677 11.3239C25.0704 11.0492 25.0784 10.5744 24.7852 10.2896L15.4289 1.20029C14.9819 0.766046 14.2352 1.08443 14.2352 1.70928V5.50352C10.7379 5.44919 8.11038 6.36859 6.15777 7.77757C4.17463 9.20858 2.91107 11.1275 2.13244 12.9873C1.35453 14.8455 1.05475 16.6582 1.00701 17.9011C0.983465 18.514 1.01983 19.0199 1.10721 19.329C1.12954 19.408 1.15971 19.4909 1.20308 19.5642C1.24126 19.6287 1.32203 19.741 1.46879 19.788C1.64537 19.8444 1.79525 19.772 1.88212 19.697C1.96052 19.6294 2.01321 19.5421 2.04967 19.4688L2.0543 19.4595L2.05803 19.4508L2.05838 19.4499L2.05928 19.4479L2.06646 19.4322C2.07341 19.4173 2.08471 19.3936 2.10071 19.3621C2.1327 19.299 2.18344 19.2045 2.25559 19.0853C2.39994 18.847 2.62971 18.5105 2.96627 18.1299C3.63855 17.3697 4.73903 16.431 6.44319 15.7459C7.41322 15.3559 9.03011 15.1784 10.6154 15.1497C12.1282 15.1222 13.5391 15.231 14.2352 15.3853V19.2907C14.2352 19.9042 14.9585 20.2272 15.4114 19.8161L24.7677 11.3239Z" stroke="black" stroke-width="2"/>
</svg>
