<svg width="22" height="22" viewBox="0 0 22 22" fill="none" xmlns="http://www.w3.org/2000/svg">
<style>
    #Vector-56{
        opacity: 0.5;
        fill: #FFFFFF;
    }
    #Vector-55{
        opacity: 0.5;
        stroke: #4094DA;
    }
</style>
<g id="song-icon">
<path id="Vector-55" fill-rule="evenodd" clip-rule="evenodd" d="M10.8672 20.8373C9.62133 20.8569 8.48723 20.1214 7.99685 18.976C7.50647 17.8305 7.7571 16.5022 8.63117 15.6142C9.50524 14.7262 10.8294 14.4546 11.9824 14.9268C13.1355 15.399 13.8888 16.5214 13.8889 17.7674C13.8954 18.5752 13.5806 19.3525 13.0139 19.9282C12.4472 20.5039 11.675 20.8309 10.8672 20.8373Z" stroke="black" stroke-width="1.5" stroke-linecap="round" stroke-linejoin="round"/>
<path id="Vector-56" d="M9.26221 1.75395C9.67642 1.75395 10.0122 1.41816 10.0122 1.00395C10.0122 0.589733 9.67642 0.253946 9.26221 0.253946V1.75395ZM0.762207 0.253946C0.347994 0.253946 0.0122071 0.589733 0.0122071 1.00395C0.0122071 1.41816 0.347994 1.75395 0.762207 1.75395V0.253946ZM9.26221 6.17061C9.67642 6.17061 10.0122 5.83483 10.0122 5.42061C10.0122 5.0064 9.67642 4.67061 9.26221 4.67061V6.17061ZM0.762207 4.67061C0.347993 4.67061 0.012207 5.0064 0.012207 5.42061C0.012207 5.83483 0.347993 6.17061 0.762207 6.17061V4.67061ZM6.42887 10.5873C6.84309 10.5873 7.17887 10.2515 7.17887 9.83729C7.17887 9.42307 6.84309 9.08729 6.42887 9.08729V10.5873ZM0.762207 9.08729C0.347993 9.08729 0.012207 9.42307 0.012207 9.83729C0.012207 10.2515 0.347993 10.5873 0.762207 10.5873V9.08729ZM13.1376 17.7674C13.1376 18.1816 13.4734 18.5174 13.8876 18.5174C14.3018 18.5174 14.6376 18.1816 14.6376 17.7674H13.1376ZM14.6376 5.96228C14.6376 5.54807 14.3018 5.21228 13.8876 5.21228C13.4734 5.21228 13.1376 5.54807 13.1376 5.96228H14.6376ZM13.8876 5.96228H13.1376C13.1376 6.17487 13.2278 6.37748 13.3859 6.51971C13.5439 6.66194 13.7548 6.73043 13.9662 6.70815L13.8876 5.96228ZM13.8876 3.83728H14.6376C14.6376 3.82375 14.6373 3.81022 14.6365 3.79671L13.8876 3.83728ZM14.6721 1.78838L14.1417 1.25805V1.25805L14.6721 1.78838ZM16.721 1.00395L16.6804 1.75285C16.6939 1.75358 16.7074 1.75395 16.721 1.75395V1.00395ZM18.3572 1.00395V1.75395L18.3607 1.75394L18.3572 1.00395ZM20.6015 3.12312L19.8526 3.16259V3.16259L20.6015 3.12312ZM18.5924 5.46645L18.5171 4.72023L18.5138 4.72058L18.5924 5.46645ZM9.26221 0.253946H0.762207V1.75395H9.26221V0.253946ZM9.26221 4.67061H0.762207V6.17061H9.26221V4.67061ZM6.42887 9.08729H0.762207V10.5873H6.42887V9.08729ZM14.6376 17.7674V5.96228H13.1376V17.7674H14.6376ZM14.6376 5.96228V3.83728H13.1376V5.96228H14.6376ZM14.6365 3.79671C14.6067 3.24604 14.8124 2.70866 15.2024 2.31871L14.1417 1.25805C13.4505 1.94925 13.0858 2.90177 13.1387 3.87785L14.6365 3.79671ZM15.2024 2.31871C15.5923 1.92875 16.1297 1.72302 16.6804 1.75285L16.7615 0.255044C15.7854 0.202165 14.8329 0.566841 14.1417 1.25805L15.2024 2.31871ZM16.721 1.75395H18.3572V0.253946H16.721V1.75395ZM18.3607 1.75394C19.1542 1.75021 19.8108 2.37019 19.8526 3.16259L21.3505 3.08365C21.2666 1.49188 19.9476 0.246456 18.3537 0.253955L18.3607 1.75394ZM19.8526 3.16259C19.8943 3.95499 19.3065 4.64055 18.5171 4.72024L18.6677 6.21266C20.2536 6.05258 21.4344 4.67542 21.3505 3.08365L19.8526 3.16259ZM18.5138 4.72058L13.809 5.21641L13.9662 6.70815L18.671 6.21232L18.5138 4.72058Z" fill="black"/>
</g>
</svg>
