<svg width="23" height="27" viewBox="0 0 23 27" fill="none" xmlns="http://www.w3.org/2000/svg">
<style>
    #paper{
        fill: #FFFFFF;
    }
    #checkmark{
        stroke: #4094DA;
    }
</style>
<g id="task-icon">
<path id="paper" d="M3.28191 24.4675L3.72275 23.8608L3.28191 24.4675ZM2.05723 23.2428L2.66399 22.802L2.05723 23.2428ZM19.8714 23.2428L19.2646 22.802L19.8714 23.2428ZM18.6467 24.4675L18.2059 23.8608L18.6467 24.4675ZM18.6467 4.43907L18.2059 5.04583L18.6467 4.43907ZM19.8714 5.66374L19.2646 6.10458L19.8714 5.66374ZM3.28191 4.43907L3.72275 5.04583L3.28191 4.43907ZM2.05723 5.66374L2.66399 6.10458L2.05723 5.66374ZM6.53573 9.27471C6.12151 9.27471 5.78573 9.61049 5.78573 10.0247C5.78573 10.4389 6.12151 10.7747 6.53573 10.7747V9.27471ZM15.3929 10.7747C15.8071 10.7747 16.1429 10.4389 16.1429 10.0247C16.1429 9.61049 15.8071 9.27471 15.3929 9.27471V10.7747ZM6.53573 13.7033C6.12151 13.7033 5.78573 14.0391 5.78573 14.4533C5.78573 14.8675 6.12151 15.2033 6.53573 15.2033V13.7033ZM15.3929 15.2033C15.8071 15.2033 16.1429 14.8675 16.1429 14.4533C16.1429 14.0391 15.8071 13.7033 15.3929 13.7033V15.2033ZM6.53573 18.1319C6.12151 18.1319 5.78573 18.4677 5.78573 18.8819C5.78573 19.2961 6.12151 19.6319 6.53573 19.6319V18.1319ZM9.85716 19.6319C10.2714 19.6319 10.6072 19.2961 10.6072 18.8819C10.6072 18.4677 10.2714 18.1319 9.85716 18.1319V19.6319ZM20.1786 13.3461V15.5604H21.6786V13.3461H20.1786ZM1.75 15.5604V13.3461H0.25V15.5604H1.75ZM10.9643 24.7747C8.87185 24.7747 7.36275 24.7737 6.19276 24.647C5.03681 24.5217 4.30116 24.281 3.72275 23.8608L2.84107 25.0743C3.7178 25.7113 4.74761 25.9992 6.03119 26.1382C7.30074 26.2758 8.90526 26.2747 10.9643 26.2747V24.7747ZM0.25 15.5604C0.25 17.6195 0.248971 19.224 0.386517 20.4935C0.525585 21.7771 0.813481 22.8069 1.45047 23.6837L2.66399 22.802C2.24375 22.2236 2.00303 21.4879 1.87779 20.332C1.75103 19.162 1.75 17.6529 1.75 15.5604H0.25ZM3.72275 23.8608C3.31646 23.5656 2.95917 23.2083 2.66399 22.802L1.45047 23.6837C1.83817 24.2173 2.30744 24.6866 2.84107 25.0743L3.72275 23.8608ZM20.1786 15.5604C20.1786 17.6529 20.1776 19.162 20.0508 20.332C19.9256 21.4879 19.6849 22.2236 19.2646 22.802L20.4781 23.6837C21.1151 22.8069 21.403 21.7771 21.5421 20.4935C21.6796 19.224 21.6786 17.6195 21.6786 15.5604H20.1786ZM10.9643 26.2747C13.0234 26.2747 14.6279 26.2758 15.8974 26.1382C17.181 25.9992 18.2108 25.7113 19.0875 25.0743L18.2059 23.8608C17.6275 24.281 16.8918 24.5217 15.7359 24.647C14.5659 24.7737 13.0568 24.7747 10.9643 24.7747V26.2747ZM19.2646 22.802C18.9694 23.2083 18.6122 23.5656 18.2059 23.8608L19.0875 25.0743C19.6212 24.6866 20.0904 24.2173 20.4781 23.6837L19.2646 22.802ZM10.9643 4.13184C13.0568 4.13184 14.5659 4.13287 15.7359 4.25963C16.8918 4.38487 17.6275 4.62558 18.2059 5.04583L19.0875 3.8323C18.2108 3.19532 17.181 2.90742 15.8974 2.76835C14.6279 2.63081 13.0234 2.63184 10.9643 2.63184V4.13184ZM21.6786 13.3461C21.6786 11.2871 21.6796 9.68257 21.5421 8.41303C21.403 7.12945 21.1151 6.09964 20.4781 5.22291L19.2646 6.10458C19.6849 6.683 19.9256 7.41864 20.0508 8.5746C20.1776 9.74459 20.1786 11.2537 20.1786 13.3461H21.6786ZM18.2059 5.04583C18.6122 5.34101 18.9694 5.6983 19.2646 6.10458L20.4781 5.22291C20.0904 4.68928 19.6212 4.22 19.0875 3.8323L18.2059 5.04583ZM10.9643 2.63184C8.90526 2.63184 7.30074 2.63081 6.03119 2.76835C4.74761 2.90742 3.7178 3.19532 2.84107 3.8323L3.72275 5.04583C4.30116 4.62558 5.03681 4.38487 6.19276 4.25963C7.36275 4.13287 8.87185 4.13184 10.9643 4.13184V2.63184ZM1.75 13.3461C1.75 11.2537 1.75103 9.74459 1.87779 8.5746C2.00303 7.41864 2.24375 6.683 2.66399 6.10458L1.45047 5.22291C0.813481 6.09964 0.525585 7.12945 0.386517 8.41303C0.248971 9.68257 0.25 11.2871 0.25 13.3461H1.75ZM2.84107 3.8323C2.30744 4.22 1.83817 4.68928 1.45047 5.22291L2.66399 6.10458C2.95917 5.6983 3.31646 5.34101 3.72275 5.04583L2.84107 3.8323ZM6.53573 10.7747H15.3929V9.27471H6.53573V10.7747ZM6.53573 15.2033H15.3929V13.7033H6.53573V15.2033ZM6.53573 19.6319H9.85716V18.1319H6.53573V19.6319Z" fill="black"/>
<path id="checkmark" d="M21.5035 0.999931L19.3602 5.13936C18.511 6.77966 18.0863 7.59982 17.3267 7.76727C16.5671 7.93473 15.837 7.36915 14.3767 6.23799L13.426 5.50158" stroke="black" stroke-width="1.5" stroke-linecap="round"/>
</g>
</svg>
