<svg width="23" height="23" viewBox="0 0 23 23" fill="none" xmlns="http://www.w3.org/2000/svg">
<style>
    #telegram-stroke{
        stroke: #FFFFFF;
    }
</style>
<g id="Telegram-icon-active">
<mask id="path-1-inside-1_584_295" fill="white">
<path d="M0.604261 10.4844C0.65708 10.4525 0.709924 10.4222 0.761422 10.3935C1.65671 9.89243 2.56387 9.42333 3.46972 8.95422C3.51858 8.95422 3.60043 8.8856 3.64664 8.86326C3.71663 8.82656 3.78663 8.79147 3.85661 8.75477C3.9913 8.68456 4.126 8.61594 4.25936 8.54573C4.52874 8.40691 4.79678 8.2681 5.06616 8.12928L6.67845 7.29477C7.75332 6.73949 8.82953 6.18261 9.9044 5.62734C10.9793 5.07206 12.0554 4.51519 13.1303 3.95992C14.2052 3.40464 15.2814 2.84778 16.3562 2.2925C17.4311 1.73723 18.5073 1.18034 19.5822 0.625069C19.8212 0.50061 20.08 0.315514 20.3362 0.261263C20.5514 0.21499 20.7613 0.125649 20.9779 0.0761848C21.3886 -0.0179568 21.8415 -0.056258 22.235 0.149577C22.371 0.22138 22.4965 0.321903 22.6008 0.447957C23.0999 1.04472 23.0299 2.02443 22.9243 2.86373C22.1888 8.71327 21.4533 14.5644 20.7164 20.414C20.6161 21.2166 20.4788 22.0973 19.9545 22.6047C19.5108 23.034 18.8797 23.0818 18.3317 22.8999C17.7837 22.7164 17.3004 22.3319 16.8263 21.9537C14.8601 20.3805 12.8926 18.8072 10.9264 17.2339C10.459 16.8605 9.93874 16.3723 9.94402 15.6941C9.94666 15.2856 10.1487 14.9218 10.3547 14.5979C12.0634 11.9045 14.5287 10.0536 16.3628 7.48464C16.6217 7.12243 16.825 6.46824 16.4698 6.25921C16.2585 6.13476 16.0155 6.30388 15.8228 6.46504C13.3984 8.49945 10.9753 10.5355 8.55091 12.5699C7.75995 13.2337 6.93069 13.9166 5.9773 14.0794C5.12428 14.2261 4.26597 13.9389 3.44067 13.6453C2.74874 13.3996 2.05811 13.1475 1.37014 12.8874C1.00437 12.7502 0.626713 12.6018 0.344131 12.2906C0.0615492 11.9795 -0.100847 11.4561 0.069494 11.0413C0.176453 10.7812 0.383771 10.6168 0.60165 10.4828L0.604261 10.4844Z"/>
</mask>
<path id="telegram-stroke" d="M0.604261 10.4844C0.65708 10.4525 0.709924 10.4222 0.761422 10.3935C1.65671 9.89243 2.56387 9.42333 3.46972 8.95422C3.51858 8.95422 3.60043 8.8856 3.64664 8.86326C3.71663 8.82656 3.78663 8.79147 3.85661 8.75477C3.9913 8.68456 4.126 8.61594 4.25936 8.54573C4.52874 8.40691 4.79678 8.2681 5.06616 8.12928L6.67845 7.29477C7.75332 6.73949 8.82953 6.18261 9.9044 5.62734C10.9793 5.07206 12.0554 4.51519 13.1303 3.95992C14.2052 3.40464 15.2814 2.84778 16.3562 2.2925C17.4311 1.73723 18.5073 1.18034 19.5822 0.625069C19.8212 0.50061 20.08 0.315514 20.3362 0.261263C20.5514 0.21499 20.7613 0.125649 20.9779 0.0761848C21.3886 -0.0179568 21.8415 -0.056258 22.235 0.149577C22.371 0.22138 22.4965 0.321903 22.6008 0.447957C23.0999 1.04472 23.0299 2.02443 22.9243 2.86373C22.1888 8.71327 21.4533 14.5644 20.7164 20.414C20.6161 21.2166 20.4788 22.0973 19.9545 22.6047C19.5108 23.034 18.8797 23.0818 18.3317 22.8999C17.7837 22.7164 17.3004 22.3319 16.8263 21.9537C14.8601 20.3805 12.8926 18.8072 10.9264 17.2339C10.459 16.8605 9.93874 16.3723 9.94402 15.6941C9.94666 15.2856 10.1487 14.9218 10.3547 14.5979C12.0634 11.9045 14.5287 10.0536 16.3628 7.48464C16.6217 7.12243 16.825 6.46824 16.4698 6.25921C16.2585 6.13476 16.0155 6.30388 15.8228 6.46504C13.3984 8.49945 10.9753 10.5355 8.55091 12.5699C7.75995 13.2337 6.93069 13.9166 5.9773 14.0794C5.12428 14.2261 4.26597 13.9389 3.44067 13.6453C2.74874 13.3996 2.05811 13.1475 1.37014 12.8874C1.00437 12.7502 0.626713 12.6018 0.344131 12.2906C0.0615492 11.9795 -0.100847 11.4561 0.069494 11.0413C0.176453 10.7812 0.383771 10.6168 0.60165 10.4828L0.604261 10.4844Z" stroke="black" stroke-width="2" mask="url(#path-1-inside-1_584_295)"/>
</g>
</svg>
