<svg width="24" height="22" viewBox="0 0 24 22" fill="none" xmlns="http://www.w3.org/2000/svg">
<style>
    #Vector-11{
        opacity: 0.5;
        stroke: #FFFFFF;
    }
    #Vector-12{
        opacity: 0.5;
        stroke: #4094DA;
    }
</style>
<g id="video-icon">
<path id="Vector-11" fill-rule="evenodd" clip-rule="evenodd" d="M0.762207 9.01668V15.6967C0.768733 17.1211 1.34094 18.4845 2.3529 19.487C3.36487 20.4894 4.73366 21.0486 6.15804 21.0417H16.9497C18.3741 21.0486 19.7429 20.4894 20.7548 19.487C21.7668 18.4845 22.339 17.1211 22.3455 15.6967V9.01668C22.339 7.59229 21.7668 6.22886 20.7548 5.22644C19.7429 4.22402 18.3741 3.66475 16.9497 3.67172C16.2016 3.57249 15.5624 3.08356 15.2708 2.38751C14.7928 1.52856 13.8858 0.997142 12.9028 1.00001H10.2049C9.22191 0.997142 8.31495 1.52856 7.83692 2.38751C7.54533 3.08356 6.90615 3.57249 6.15804 3.67172C4.73366 3.66475 3.36487 4.22402 2.3529 5.22644C1.34094 6.22886 0.768733 7.59229 0.762207 9.01668Z" stroke="black" stroke-width="1.5" stroke-linecap="round" stroke-linejoin="round"/>
<path id="Vector-12" fill-rule="evenodd" clip-rule="evenodd" d="M11.5538 15.6968C9.71283 15.679 8.23329 14.1751 8.24544 12.3341C8.25758 10.4931 9.75685 9.00895 11.5979 9.0154C13.4389 9.02186 14.9277 10.5165 14.9269 12.3576C14.9225 13.2477 14.5646 14.0996 13.932 14.7258C13.2994 15.352 12.4439 15.7013 11.5538 15.6968Z" stroke="black" stroke-width="1.5" stroke-linecap="round" stroke-linejoin="round"/>
</g>
</svg>
