<svg width="26" height="17" viewBox="0 0 26 17" fill="none" xmlns="http://www.w3.org/2000/svg">
<style>
    #video-icon-part{
        fill: #584EDF;
        filter: drop-shadow(0px 0px 4.8px rgba(88, 78, 223, 1));
    }
</style>
<g id="video-icon">
<path id="video-icon-part" d="M5.25532 4.85714C4.79704 4.85714 4.42553 5.18334 4.42553 5.58571C4.42553 5.98809 4.79704 6.31429 5.25532 6.31429H9.68085C10.1391 6.31429 10.5106 5.98809 10.5106 5.58571C10.5106 5.18334 10.1391 4.85714 9.68085 4.85714H5.25532Z" fill="black"/>
<path id="video-icon-part" fill-rule="evenodd" clip-rule="evenodd" d="M13.3818 0.0685945C12.4255 -7.91805e-06 11.2356 -4.38672e-06 9.71798 7.17024e-08H9.64372C8.12607 -4.38672e-06 6.93623 -7.91805e-06 5.97993 0.0685945C5.00616 0.13845 4.20169 0.283054 3.47355 0.608807C2.27652 1.14433 1.3033 1.99883 0.693384 3.04985C0.322376 3.68918 0.157684 4.39552 0.0781239 5.25051C-9.01805e-06 6.09016 -4.99614e-06 7.13487 8.16637e-08 8.4674V8.5326C-4.99614e-06 9.86513 -9.01805e-06 10.9098 0.0781239 11.7495C0.157684 12.6045 0.322376 13.3108 0.693384 13.9501C1.3033 15.0012 2.27652 15.8557 3.47355 16.3912C4.20169 16.7169 5.00616 16.8615 5.97993 16.9314C6.93621 17 8.12603 17 9.64365 17H9.718C11.2356 17 12.4255 17 13.3818 16.9314C14.3555 16.8615 15.16 16.7169 15.8882 16.3912C17.0852 15.8557 18.0584 15.0012 18.6683 13.9501C18.7237 13.8548 18.7744 13.7579 18.821 13.6592C20.1118 14.1543 21.1689 14.5563 22.0269 14.7606C22.9396 14.978 23.8286 15.0228 24.6234 14.5662C25.4181 14.1096 25.7273 13.3764 25.8659 12.5551C26.0001 11.7598 26 10.7107 26 9.42303V7.57697C26 6.28928 26.0001 5.24024 25.8659 4.44493C25.7273 3.62361 25.4181 2.89039 24.6234 2.43379C23.8286 1.97719 22.9396 2.02197 22.0269 2.23936C21.1689 2.44374 20.1118 2.84568 18.821 3.34083C18.7744 3.24213 18.7237 3.14524 18.6683 3.04985C18.0584 1.99883 17.0852 1.14433 15.8882 0.608807C15.16 0.283054 14.3555 0.13845 13.3818 0.0685945ZM19.3049 12.2546L19.2273 12.2249C19.3618 11.298 19.3618 10.1352 19.3617 8.60216V8.39793C19.3618 6.86489 19.3618 5.70201 19.2273 4.77515L19.3049 4.74537C20.7285 4.1992 21.7105 3.82454 22.4614 3.64567C23.1975 3.47035 23.5082 3.53449 23.7147 3.6531C23.9211 3.77171 24.1125 3.99605 24.2242 4.65843C24.3382 5.33424 24.3404 6.27435 24.3404 7.63838V9.36162C24.3404 10.7257 24.3382 11.6658 24.2242 12.3416C24.1125 13.004 23.9211 13.2283 23.7147 13.3469C23.5082 13.4655 23.1975 13.5296 22.4614 13.3543C21.7105 13.1755 20.7285 12.8008 19.3049 12.2546ZM4.22698 1.90713C4.68218 1.70349 5.24393 1.58339 6.11507 1.5209C6.9959 1.45771 8.11808 1.45714 9.68085 1.45714C11.2436 1.45714 12.3658 1.45771 13.2466 1.5209C14.1178 1.58339 14.6795 1.70349 15.1347 1.90713C16.0195 2.30295 16.7388 2.93454 17.1896 3.71138C17.3185 3.93351 17.4177 4.18418 17.4926 4.49232C17.6975 5.33573 17.7021 6.49646 17.7021 8.5C17.7021 10.5032 17.6975 11.6638 17.4927 12.5072C17.4178 12.8156 17.3186 13.0664 17.1896 13.2886C16.7388 14.0655 16.0195 14.697 15.1347 15.0929C14.6795 15.2965 14.1178 15.4166 13.2466 15.4791C12.3658 15.5423 11.2436 15.5429 9.68085 15.5429C8.11808 15.5429 6.9959 15.5423 6.11507 15.4791C5.24393 15.4166 4.68218 15.2965 4.22698 15.0929C3.34222 14.697 2.62288 14.0655 2.17208 13.2886C1.94014 12.8889 1.80336 12.3957 1.73219 11.6308C1.66022 10.8574 1.65957 9.87215 1.65957 8.5C1.65957 7.12785 1.66022 6.14256 1.73219 5.36917C1.80336 4.60428 1.94014 4.11106 2.17208 3.71138C2.62288 2.93454 3.34222 2.30295 4.22698 1.90713Z" fill="black"/>
</g>
</svg>
