<svg width="26" height="18" viewBox="0 0 26 18" fill="none" xmlns="http://www.w3.org/2000/svg">
<g id="video-icon-start">
<path fill-rule="evenodd" clip-rule="evenodd" d="M11.803 5.28285C11.0615 4.86612 10.4561 4.52586 9.95684 4.30177C9.45521 4.07658 8.93287 3.90674 8.38313 3.96298C7.58855 4.04427 6.88312 4.44829 6.43209 5.05254C6.12599 5.46263 6.01886 5.96037 5.96897 6.48967C5.91923 7.0174 5.91924 7.69376 5.91925 8.53151V8.6013C5.91924 9.43905 5.91923 10.1154 5.96897 10.6431C6.01886 11.1724 6.12599 11.6702 6.43209 12.0803C6.88312 12.6845 7.58855 13.0885 8.38313 13.1698C8.93287 13.2261 9.45521 13.0562 9.95684 12.831C10.4561 12.6069 11.0615 12.2667 11.803 11.8499L11.8732 11.8105C12.6155 11.3934 13.2207 11.0533 13.6691 10.7449C14.1243 10.4319 14.5189 10.0862 14.7307 9.62306C15.0388 8.94951 15.0388 8.1833 14.7307 7.50976C14.5189 7.04663 14.1243 6.70091 13.6691 6.38788C13.2207 6.07955 12.6155 5.73942 11.8732 5.32231L11.803 5.28285ZM8.5608 5.41107C8.6443 5.40252 8.82445 5.41713 9.25285 5.60944C9.67572 5.79927 10.2165 6.10223 11.0022 6.54378C11.7875 6.98512 12.328 7.28973 12.7091 7.55185C13.0904 7.81406 13.2111 7.96829 13.2583 8.07136C13.402 8.38554 13.402 8.74727 13.2583 9.06146C13.2111 9.16453 13.0904 9.31875 12.7091 9.58096C12.328 9.84308 11.7875 10.1477 11.0022 10.589C10.2165 11.0306 9.67572 11.3335 9.25285 11.5234C8.82445 11.7157 8.6443 11.7303 8.5608 11.7217C8.25067 11.69 7.95256 11.5301 7.75068 11.2596C7.68251 11.1683 7.60251 10.9816 7.55884 10.5182C7.5157 10.0605 7.51499 9.44726 7.51499 8.56641C7.51499 7.68555 7.5157 7.07231 7.55884 6.61462C7.60251 6.15119 7.68251 5.96454 7.75068 5.87321C7.95256 5.60275 8.25067 5.44279 8.5608 5.41107Z" fill="black"/>
<path fill-rule="evenodd" clip-rule="evenodd" d="M13.4672 0.135001C12.5477 0.0663983 11.4036 0.0664019 9.94431 0.0664063H9.87291C8.41363 0.0664019 7.26955 0.0663983 6.35003 0.135001C5.41371 0.204857 4.64019 0.34946 3.94005 0.675213C2.78906 1.21073 1.85327 2.06524 1.26681 3.11626C0.910075 3.75559 0.751717 4.46192 0.675217 5.31692C0.600089 6.15657 0.600093 7.20128 0.600098 8.53381V8.59901C0.600093 9.93153 0.600089 10.9762 0.675217 11.8159C0.751717 12.6709 0.910075 13.3772 1.26681 14.0166C1.85327 15.0676 2.78906 15.9221 3.94005 16.4576C4.64019 16.7834 5.41371 16.928 6.35003 16.9978C7.26953 17.0664 8.41359 17.0664 9.87283 17.0664H9.94433C11.4036 17.0664 12.5477 17.0664 13.4672 16.9978C14.4035 16.928 15.177 16.7834 15.8772 16.4576C17.0282 15.9221 17.9639 15.0676 18.5504 14.0166C18.6036 13.9212 18.6524 13.8243 18.6973 13.7256C19.9384 14.2207 20.9548 14.6227 21.7798 14.827C22.6574 15.0444 23.5122 15.0892 24.2764 14.6326C25.0406 14.176 25.3379 13.4428 25.4711 12.6215C25.6002 11.8262 25.6001 10.7771 25.6001 9.48943V7.64338C25.6001 6.35568 25.6002 5.30664 25.4711 4.51134C25.3379 3.69002 25.0406 2.9568 24.2764 2.5002C23.5122 2.0436 22.6574 2.08838 21.7798 2.30576C20.9548 2.51015 19.9384 2.91209 18.6973 3.40724C18.6524 3.30853 18.6036 3.21164 18.5504 3.11626C17.9639 2.06524 17.0282 1.21073 15.8772 0.675213C15.177 0.34946 14.4035 0.204857 13.4672 0.135001ZM19.1625 12.321L19.0879 12.2913C19.2172 11.3643 19.2172 10.2018 19.2171 8.66924V8.46359C19.2172 6.93112 19.2172 5.76846 19.0879 4.84156L19.1625 4.81177C20.5313 4.26561 21.4756 3.89095 22.1976 3.71208C22.9054 3.53676 23.2042 3.6009 23.4027 3.71951C23.6012 3.83811 23.7852 4.06245 23.8926 4.72484C24.0022 5.40064 24.0044 6.34075 24.0044 7.70479V9.42803C24.0044 10.7921 24.0022 11.7322 23.8926 12.408C23.7852 13.0704 23.6012 13.2947 23.4027 13.4133C23.2042 13.5319 22.9054 13.5961 22.1976 13.4207C21.4756 13.2419 20.5313 12.8672 19.1625 12.321ZM4.6645 1.97354C5.10219 1.76989 5.64234 1.6498 6.47997 1.5873C7.32693 1.52412 8.40594 1.52355 9.90861 1.52355C11.4113 1.52355 12.4903 1.52412 13.3372 1.5873C14.1749 1.6498 14.715 1.76989 15.1527 1.97354C16.0034 2.36936 16.6951 3.00095 17.1286 3.77779C17.2518 3.99855 17.3467 4.24747 17.4185 4.55293C17.6169 5.39649 17.6214 6.55789 17.6214 8.56641C17.6214 10.5743 17.6169 11.7357 17.4187 12.5792C17.3468 12.885 17.2519 13.1341 17.1286 13.355C16.6951 14.1319 16.0034 14.7635 15.1527 15.1593C14.715 15.3629 14.1749 15.483 13.3372 15.5455C12.4903 15.6087 11.4113 15.6093 9.90861 15.6093C8.40594 15.6093 7.32693 15.6087 6.47997 15.5455C5.64234 15.483 5.10219 15.3629 4.6645 15.1593C3.81377 14.7635 3.1221 14.1319 2.68863 13.355C2.46562 12.9554 2.3341 12.4621 2.26566 11.6972C2.19646 10.9239 2.19584 9.93856 2.19584 8.56641C2.19584 7.19426 2.19646 6.20896 2.26566 5.43557C2.3341 4.67069 2.46562 4.17746 2.68863 3.77779C3.1221 3.00095 3.81377 2.36936 4.6645 1.97354Z" fill="black"/>
</g>
</svg>
