<svg width="22" height="22" viewBox="0 0 22 22" fill="none" xmlns="http://www.w3.org/2000/svg">
<style>
    #base{
        stroke: #CCCCCC;
    }
    #base-2{
        stroke: #CCCCCC;
    }
    #button{
        fill: #CCCCCC;
    }
</style>
<g id="wallet-icon">
<path id="base" d="M3.39995 5.78638C3.39995 5.78638 15.5912 5.78638 17.8 5.78638C19.2756 5.78638 20.2 7.22638 20.2 8.18638V18.4501C20.2 19.6745 19.2081 20.6664 17.9837 20.6664H3.2162C1.99183 20.6664 0.99995 19.6745 0.99995 18.4501V8.11325C0.99995 6.89075 2.17558 5.78638 3.39995 5.78638Z" stroke="black" stroke-width="2" stroke-miterlimit="10" stroke-linecap="round" stroke-linejoin="round"/>
<path id="base-2" d="M4.83995 4.34636V2.74136C4.83995 1.14386 5.18495 0.682613 7.1687 1.20574C8.62558 1.59011 17.1531 3.95449 17.1531 3.95449C19.78 4.94261 20.1812 5.78636 20.1812 7.70449L20.2 8.88386" stroke="black" stroke-width="2" stroke-miterlimit="10" stroke-linejoin="round"/>
<path id="button" d="M4.11807 14.4264C4.78182 14.4264 5.31995 13.8901 5.31995 13.2264C5.31995 12.5645 4.78182 12.0264 4.11807 12.0264C3.45807 12.0264 2.91995 12.5645 2.91995 13.2264C2.91995 13.8901 3.45807 14.4264 4.11807 14.4264Z" fill="black"/>
</g>
</svg>
